<?xml version="1.0" encoding="UTF-8" standalone="no"?>
<!-- Created with Inkscape (http://www.inkscape.org/) -->

<svg
   width="66.145828mm"
   height="58.790062mm"
   viewBox="0 0 66.145828 58.790062"
   version="1.1"
   id="svg1"
   sodipodi:docname="isotipo-white.svg"
   inkscape:version="1.3 (0e150ed6c4, 2023-07-21)"
   xmlns:inkscape="http://www.inkscape.org/namespaces/inkscape"
   xmlns:sodipodi="http://sodipodi.sourceforge.net/DTD/sodipodi-0.dtd"
   xmlns="http://www.w3.org/2000/svg"
   xmlns:svg="http://www.w3.org/2000/svg">
  <sodipodi:namedview
     id="namedview1"
     pagecolor="#ffffff"
     bordercolor="#000000"
     borderopacity="0.25"
     inkscape:showpageshadow="2"
     inkscape:pageopacity="0.0"
     inkscape:pagecheckerboard="0"
     inkscape:deskcolor="#d1d1d1"
     inkscape:document-units="mm"
     inkscape:zoom="2.3357477"
     inkscape:cx="124.79944"
     inkscape:cy="68.714614"
     inkscape:window-width="1366"
     inkscape:window-height="715"
     inkscape:window-x="-8"
     inkscape:window-y="-8"
     inkscape:window-maximized="1"
     inkscape:current-layer="layer1" />
  <defs
     id="defs1">
    <clipPath
       clipPathUnits="userSpaceOnUse"
       id="clipPath55">
      <g
         id="g57">
        <g
           id="g56">
          <path
             d="M 38.201761,500.49446 H 483.54825 V 256.44458 H 38.201761 Z"
             id="path55"
             style="stroke-width:0.445347" />
        </g>
      </g>
    </clipPath>
    <clipPath
       clipPathUnits="userSpaceOnUse"
       id="clipPath73">
      <g
         id="g75">
        <g
           id="g74">
          <path
             d="M 38.201761,500.49446 H 483.54825 V 256.44458 H 38.201761 Z"
             id="path73"
             style="stroke-width:0.445347" />
        </g>
      </g>
    </clipPath>
    <clipPath
       clipPathUnits="userSpaceOnUse"
       id="clipPath51">
      <g
         id="g53">
        <g
           id="g52">
          <path
             d="M 38.201761,500.49446 H 483.54825 V 256.44458 H 38.201761 Z"
             id="path51"
             style="stroke-width:0.445347" />
        </g>
      </g>
    </clipPath>
    <clipPath
       clipPathUnits="userSpaceOnUse"
       id="clipPath70">
      <g
         id="g72">
        <g
           id="g71">
          <path
             d="M 38.201761,500.49446 H 483.54825 V 256.44458 H 38.201761 Z"
             id="path70"
             style="stroke-width:0.445347" />
        </g>
      </g>
    </clipPath>
    <clipPath
       clipPathUnits="userSpaceOnUse"
       id="clipPath76">
      <g
         id="g78">
        <g
           id="g77">
          <path
             d="M 38.201761,500.49446 H 483.54825 V 256.44458 H 38.201761 Z"
             id="path76"
             style="stroke-width:0.445347" />
        </g>
      </g>
    </clipPath>
    <clipPath
       clipPathUnits="userSpaceOnUse"
       id="clipPath64">
      <g
         id="g66">
        <g
           id="g65">
          <path
             d="M 38.201761,500.49446 H 483.54825 V 256.44458 H 38.201761 Z"
             id="path64"
             style="stroke-width:0.445347" />
        </g>
      </g>
    </clipPath>
    <clipPath
       clipPathUnits="userSpaceOnUse"
       id="clipPath67">
      <g
         id="g69">
        <g
           id="g68">
          <path
             d="M 38.201761,500.49446 H 483.54825 V 256.44458 H 38.201761 Z"
             id="path67"
             style="stroke-width:0.445347" />
        </g>
      </g>
    </clipPath>
    <clipPath
       clipPathUnits="userSpaceOnUse"
       id="clipPath79">
      <g
         id="g81">
        <g
           id="g80">
          <path
             d="M 38.201761,500.49446 H 483.54825 V 256.44458 H 38.201761 Z"
             id="path79"
             style="stroke-width:0.445347" />
        </g>
      </g>
    </clipPath>
    <clipPath
       clipPathUnits="userSpaceOnUse"
       id="clipPath58">
      <g
         id="g60">
        <g
           id="g59">
          <path
             d="M 38.201761,500.49446 H 483.54825 V 256.44458 H 38.201761 Z"
             id="path58"
             style="stroke-width:0.445347" />
        </g>
      </g>
    </clipPath>
    <clipPath
       clipPathUnits="userSpaceOnUse"
       id="clipPath61">
      <g
         id="g63">
        <g
           id="g62">
          <path
             d="M 38.201761,500.49446 H 483.54825 V 256.44458 H 38.201761 Z"
             id="path61"
             style="stroke-width:0.445347" />
        </g>
      </g>
    </clipPath>
  </defs>
  <g
     inkscape:label="Capa 1"
     inkscape:groupmode="layer"
     id="layer1"
     transform="translate(-74.347917,-66.145826)">
    <g
       id="g2"
       style="fill:#ff2a2a;stroke:#ffffff;stroke-opacity:1">
      <path
         d="m 185.51254,434.3528 c -1.17082,-0.13227 -1.83394,-1.42689 -1.22292,-2.43426 1.67584,-2.76471 4.8133,-4.84716 7.94854,-4.89703 3.95512,-0.0623 7.71563,1.92256 10.63577,4.59107 2.92013,2.66896 5.13841,5.99837 7.40789,9.23872 2.26904,3.24034 4.66634,6.47489 7.83454,8.84458 3.1673,2.36969 7.25291,3.79524 11.11985,2.962 0.23203,3.37394 -1.31199,6.57064 -4.15241,8.40591 -2.84131,1.83483 -5.95473,1.59835 -9.59499,-0.016 -1.8179,-0.80608 -4.31273,-1.52576 -6.00327,-1.65224 -0.71344,-0.053 -1.07506,-0.90004 -0.61101,-1.4447 1.00871,-1.18329 2.76426,-2.19912 5.70399,-2.52779 -2.76337,0.31709 -6.32303,-0.64753 -9.59944,-3.66921 -3.27998,-3.02479 -6.33862,-5.12193 -8.48652,-5.85408 -0.69073,-0.23514 -0.81944,-1.1628 -0.21288,-1.56806 1.29106,-0.86308 3.10407,-1.45049 5.49647,-0.33401 -2.34965,-5.6176 -9.83904,-8.91896 -16.26361,-9.64487"
         style="fill:#ff2a2a;fill-opacity:1;fill-rule:nonzero;stroke:#ffffff;stroke-width:0.445347;stroke-opacity:1"
         id="path48"
         clip-path="url(#clipPath79)"
         transform="matrix(0.35849557,0,0,-0.35849557,49.656535,231.8966)" />
      <g
         id="g1"
         style="fill:#ff2a2a;stroke:#ffffff;stroke-opacity:1">
        <path
           d="m 68.875,361.70022 c 9.675152,-1.57653 23.93292,-1.53066 27.364315,9.56871 2.173291,7.04984 0.09486,15.00373 1.280371,22.46462 1.320453,14.16914 8.630374,27.42354 23.161584,31.55502 4.45346,1.38058 8.92118,1.78005 13.18982,1.862 4.30116,0.1287 9.19596,-0.46361 13.73493,-2.3158 8.84681,-3.42427 14.42255,-12.1544 17.55556,-20.25837 2.91257,-6.52076 4.49889,-14.25243 10.25366,-18.28281 5.3789,-3.49508 15.55016,-2.71706 19.64245,2.59414 -2.62442,-7.85368 -15.12753,-11.1871 -22.33412,-7.99931 -8.23401,3.34945 -12.23234,12.58594 -16.11398,19.6135 -5.34059,10.06172 -10.73908,15.62053 -22.50736,15.0064 -16.01288,-0.21332 -23.55482,-7.82964 -26.40549,-23.2551 -1.64243,-7.86215 -0.4832,-16.58693 -4.37018,-24.02645 C 96.853003,354.75949 80.155627,355.57582 68.875,361.70022"
           style="fill:#ff2a2a;fill-opacity:1;fill-rule:nonzero;stroke:#ffffff;stroke-width:0.445347;stroke-opacity:1"
           id="path20"
           clip-path="url(#clipPath55)"
           transform="matrix(0.35849557,0,0,-0.35849557,49.656535,231.8966)" />
        <path
           d="m 92.297242,344.2116 c 19.934598,-0.27656 22.967408,9.72548 23.412308,23.85053 0.20531,9.60523 -2.72285,19.92614 0.44579,29.29311 1.6224,5.48489 6.31368,11.18666 12.26351,12.53072 7.93207,1.91098 16.2026,-0.30729 22.12927,-5.57396 1.84507,-1.61883 3.45277,-3.4688 4.67658,-5.52096 -4.04998,2.44495 -8.31818,4.12302 -12.47861,4.71444 -5.14286,0.60567 -12.64027,-0.52596 -15.73364,-5.01238 -2.99852,-5.0431 -3.20561,-8.79292 -3.69504,-14.56327 -0.30239,-4.57059 0.79761,-11.55229 0.15409,-16.12288 -1.13564,-7.60296 -3.71464,-15.53859 -9.66981,-20.84266 -5.70623,-5.28716 -15.025102,-6.14311 -21.504448,-2.75269"
           style="fill:#ff2a2a;fill-opacity:1;fill-rule:nonzero;stroke:#ffffff;stroke-width:0.445347;stroke-opacity:1"
           id="path24"
           clip-path="url(#clipPath73)"
           transform="matrix(0.35849557,0,0,-0.35849557,49.656535,231.8966)" />
        <path
           d="m 160.9364,389.83627 c -6.06829,3.76808 -12.77521,6.43926 -19.00561,2.36791 -3.84601,-2.66941 -5.53744,-7.19591 -5.57173,-11.75225 0.1777,-5.71068 3.71152,-12.2065 4.45748,-18.68095 0.31397,-2.2824 0.99089,-5.22614 0.75931,-7.51121 -0.41862,-12.26796 -9.3741,-22.40316 -22.41072,-19.33205 13.43699,1.90697 18.60657,7.92049 15.45486,26.83079 -0.94013,5.64031 -6.12842,12.58727 -6.00461,19.26346 0.24138,7.64883 3.79034,13.78259 10.69143,16.68535 8.76843,3.43496 15.93361,-1.58677 21.62959,-7.87105"
           style="fill:#ff2a2a;fill-opacity:1;fill-rule:nonzero;stroke:#ffffff;stroke-width:0.445347;stroke-opacity:1"
           id="path28"
           clip-path="url(#clipPath51)"
           transform="matrix(0.35849557,0,0,-0.35849557,49.656535,231.8966)" />
        <path
           d="m 158.98659,388.70403 c -8.32353,-2.57188 -7.41235,-8.25227 -5.94671,-14.90486 0.69741,-3.16463 1.84462,-6.59157 2.09402,-9.91029 0.13805,-0.90227 0.32599,-2.73799 0.37142,-3.65095 0.6413,-7.28498 -3.0052,-16.39009 -11.36703,-16.52726 6.66016,2.42046 8.15341,9.8288 6.87259,16.0592 -0.69608,4.62448 -5.84874,12.85671 -4.32699,21.33388 1.03722,5.78015 6.69312,9.55357 12.3027,7.60028"
           style="fill:#ff2a2a;fill-opacity:1;fill-rule:nonzero;stroke:#ffffff;stroke-width:0.445347;stroke-opacity:1"
           id="path32"
           clip-path="url(#clipPath70)"
           transform="matrix(0.35849557,0,0,-0.35849557,49.656535,231.8966)" />
        <path
           d="m 215.04475,434.3357 c 0.71345,-3.93954 0.33713,-8.93677 -1.89183,-12.39978 -3.93865,-4.83068 -9.09131,-9.70455 -7.52057,-16.38341 0.87377,-5.14598 3.81128,-8.34802 7.68178,-11.82217 3.0867,-2.74645 5.96097,-5.12594 7.51122,-9.40082 3.13301,-8.63927 -1.98224,-17.66021 -6.93004,-24.20859 -9.68361,-12.81662 -29.00987,-21.50711 -39.48353,-7.26983 11.73622,-7.43506 21.42028,-0.766 30.27466,9.16835 3.89232,4.36706 7.76016,10.49637 8.44911,13.57594 1.61394,7.21506 -1.22292,9.02049 -4.93667,12.5316 -1.99648,1.88783 -4.17334,4.97541 -5.52185,7.87017 -2.5741,5.72404 -3.10807,12.6082 0.033,18.1403 2.23742,3.94621 5.71246,6.2776 8.7132,9.20753 2.44896,3.05285 3.57435,7.05741 3.62156,10.99071"
           style="fill:#ff2a2a;fill-opacity:1;fill-rule:nonzero;stroke:#ffffff;stroke-width:0.445347;stroke-opacity:1"
           id="path36"
           clip-path="url(#clipPath76)"
           transform="matrix(0.35849557,0,0,-0.35849557,49.656535,231.8966)" />
        <path
           d="m 231.5786,423.30411 c 0.85328,-4.39735 2.70682,-8.66867 5.96274,-11.69792 3.50933,-3.04884 7.09616,-6.15468 9.77491,-10.14677 5.55214,-8.23089 7.35713,-18.96018 5.15534,-28.63088 -4.14084,-17.70965 -19.72618,-33.95455 -33.13512,-45.37324 -9.89738,-8.38053 -16.0494,-16.00219 -17.96572,-29.09537 -3.69682,17.99912 7.74146,29.11007 19.00739,41.00572 5.90262,6.54169 11.76961,13.37375 16.5464,20.69302 3.75605,5.93246 7.54595,12.01723 9.19863,18.84261 2.08689,9.84751 -0.49567,19.92258 -7.2351,27.70412 0,4.4e-4 -2.96378,3.50265 -2.96378,3.50265 -2.97224,3.71285 -4.21387,8.59519 -4.34569,13.19606"
           style="fill:#ff2a2a;fill-opacity:1;fill-rule:nonzero;stroke:#ffffff;stroke-width:0.445347;stroke-opacity:1"
           id="path40"
           clip-path="url(#clipPath64)"
           transform="matrix(0.35849557,0,0,-0.35849557,49.656535,231.8966)" />
        <path
           d="m 231.49817,449.78561 c 0,0 7.01955,4.56525 12.87586,-0.24806 0,0 -9.00446,-3.38552 -9.58252,-6.20457 0,0 -1.92479,1.72305 -3.84379,2.15682 -0.0548,0.68939 -0.33134,2.10782 0.55045,4.29581"
           style="fill:#ff2a2a;fill-opacity:1;fill-rule:nonzero;stroke:#ffffff;stroke-width:0.445347;stroke-opacity:1"
           id="path44"
           clip-path="url(#clipPath67)"
           transform="matrix(0.35849557,0,0,-0.35849557,49.656535,231.8966)" />
        <path
           d="m 227.56652,446.39653 c 0,-0.90049 -0.72992,-1.63086 -1.63086,-1.63086 -0.90049,0 -1.63086,0.73037 -1.63086,1.63086 0,0.90049 0.73037,1.63086 1.63086,1.63086 0.90094,0 1.63086,-0.73037 1.63086,-1.63086"
           style="fill:#ff2a2a;fill-opacity:1;fill-rule:nonzero;stroke:#ffffff;stroke-width:0.445347;stroke-opacity:1"
           id="path52"
           clip-path="url(#clipPath58)"
           transform="matrix(0.35849557,0,0,-0.35849557,49.656535,231.8966)" />
        <path
           d="m 240.15695,435.72153 c -0.0267,0.0134 -0.0534,0.0267 -0.0811,0.0401 -1.76803,0.88401 -3.27375,2.21694 -4.39646,3.84379 l -0.70053,1.0145 c -0.22891,0.15676 -0.53976,-0.009 -0.53709,-0.28681 l -0.55446,-3.87986 c -0.24227,-1.69454 -0.35049,-3.41358 -0.18571,-5.11747 0.14652,-1.51284 0.45648,-3.00832 0.9379,-4.45614 0.14296,-0.4302 0.47786,-1.07818 0.56826,-1.22292 2.33585,-3.74893 8.96973,-3.45188 11.05083,1.39082 0.85284,1.98491 1.09912,3.6456 -0.13806,5.41719 -0.89069,1.27503 -3.34321,2.23386 -4.40937,2.60305 -0.53308,0.18482 -1.04879,0.40349 -1.55426,0.65377"
           style="fill:#ff2a2a;fill-opacity:1;fill-rule:nonzero;stroke:#ffffff;stroke-width:0.445347;stroke-opacity:1"
           id="path56"
           clip-path="url(#clipPath61)"
           transform="matrix(0.35849557,0,0,-0.35849557,49.656535,231.8966)" />
      </g>
    </g>
  </g>
</svg>
