<?xml version="1.0" encoding="UTF-8" standalone="no"?>
<!-- Created with Inkscape (http://www.inkscape.org/) -->

<svg
   version="1.1"
   id="svg2"
   width="511.99997"
   height="223.68398"
   viewBox="0 0 511.99999 223.68398"
   sodipodi:docname="LOGO (1).svg"
   xmlns:inkscape="http://www.inkscape.org/namespaces/inkscape"
   xmlns:sodipodi="http://sodipodi.sourceforge.net/DTD/sodipodi-0.dtd"
   xmlns="http://www.w3.org/2000/svg"
   xmlns:svg="http://www.w3.org/2000/svg">
  <defs
     id="defs6">
    <clipPath
       clipPathUnits="userSpaceOnUse"
       id="clipPath16">
      <path
         d="M 0,548 H 1000 V 0 H 0 Z"
         id="path14" />
    </clipPath>
  </defs>
  <sodipodi:namedview
     id="namedview4"
     pagecolor="#ffffff"
     bordercolor="#000000"
     borderopacity="0.25"
     inkscape:showpageshadow="2"
     inkscape:pageopacity="0.0"
     inkscape:pagecheckerboard="0"
     inkscape:deskcolor="#d1d1d1" />
  <g
     id="g8"
     inkscape:groupmode="layer"
     inkscape:label="LOGO"
     transform="matrix(1.3333333,0,0,-1.3333333,-91.833325,616.46792)">
    <g
       id="g10"
       transform="matrix(0.44534649,0,0,0.44534649,38.201761,256.44458)">
      <g
         id="g12"
         clip-path="url(#clipPath16)">
        <g
           id="g18"
           transform="translate(68.875,236.3455)">
          <path
             d="m 0,0 c 21.725,-3.54 53.74,-3.437 61.445,21.486 4.88,15.83 0.213,33.69 2.875,50.443 2.965,31.816 19.379,61.578 52.008,70.855 10,3.1 20.032,3.997 29.617,4.181 9.658,0.289 20.649,-1.041 30.841,-5.2 19.865,-7.689 32.385,-27.292 39.42,-45.489 6.54,-14.642 10.102,-32.003 23.024,-41.053 12.078,-7.848 34.917,-6.101 44.106,5.825 -5.893,-17.635 -33.968,-25.12 -50.15,-17.962 -18.489,7.521 -27.467,28.261 -36.183,44.041 -11.992,22.593 -24.114,35.075 -50.539,33.696 C 110.508,120.344 93.573,103.242 87.172,68.605 83.484,50.951 86.087,31.36 77.359,14.655 62.823,-15.585 25.33,-13.752 0,0"
             style="fill:#ec1e24;fill-opacity:1;fill-rule:nonzero;stroke:none"
             id="path20" />
        </g>
        <g
           id="g22"
           transform="translate(121.4683,197.0758)">
          <path
             d="m 0,0 c 44.762,-0.621 51.572,21.838 52.571,53.555 0.461,21.568 -6.114,44.743 1.001,65.776 3.643,12.316 14.177,25.119 27.537,28.137 17.811,4.291 36.382,-0.69 49.69,-12.516 4.143,-3.635 7.753,-7.789 10.501,-12.397 -9.094,5.49 -18.678,9.258 -28.02,10.586 -11.548,1.36 -28.383,-1.181 -35.329,-11.255 C 71.218,110.562 70.753,102.142 69.654,89.185 68.975,78.922 71.445,63.245 70,52.982 67.45,35.91 61.659,18.091 48.287,6.181 35.474,-5.691 14.549,-7.613 0,0"
             style="fill:#ec1e24;fill-opacity:1;fill-rule:nonzero;stroke:none"
             id="path24" />
        </g>
        <g
           id="g26"
           transform="translate(275.5936,299.5234)">
          <path
             d="m 0,0 c -13.626,8.461 -28.686,14.459 -42.676,5.317 -8.636,-5.994 -12.434,-16.158 -12.511,-26.389 0.399,-12.823 8.334,-27.409 10.009,-41.947 0.705,-5.125 2.225,-11.735 1.705,-16.866 -0.94,-27.547 -21.049,-50.305 -50.322,-43.409 30.172,4.282 41.78,17.785 34.703,60.247 -2.111,12.665 -13.761,28.264 -13.483,43.255 0.542,17.175 8.511,30.948 24.007,37.466 C -28.879,25.387 -12.79,14.111 0,0"
             style="fill:#ec1e24;fill-opacity:1;fill-rule:nonzero;stroke:none"
             id="path28" />
        </g>
        <g
           id="g30"
           transform="translate(271.2154,296.981)">
          <path
             d="m 0,0 c -18.69,-5.775 -16.644,-18.53 -13.353,-33.468 1.566,-7.106 4.142,-14.801 4.702,-22.253 0.31,-2.026 0.732,-6.148 0.834,-8.198 1.44,-16.358 -6.748,-36.803 -25.524,-37.111 14.955,5.435 18.308,22.07 15.432,36.06 -1.563,10.384 -13.133,28.869 -9.716,47.904 C -25.296,-4.087 -12.596,4.386 0,0"
             style="fill:#ec1e24;fill-opacity:1;fill-rule:nonzero;stroke:none"
             id="path32" />
        </g>
        <g
           id="g34"
           transform="translate(397.0908,399.4443)">
          <path
             d="m 0,0 c 1.602,-8.846 0.757,-20.067 -4.248,-27.843 -8.844,-10.847 -20.414,-21.791 -16.887,-36.788 1.962,-11.555 8.558,-18.745 17.249,-26.546 6.931,-6.167 13.385,-11.51 16.866,-21.109 7.035,-19.399 -4.451,-39.655 -15.561,-54.359 -21.744,-28.779 -65.14,-48.293 -88.658,-16.324 26.353,-16.695 48.098,-1.72 67.98,20.587 8.74,9.806 17.425,23.569 18.972,30.484 3.624,16.201 -2.746,20.255 -11.085,28.139 -4.483,4.239 -9.371,11.172 -12.399,17.672 -5.78,12.853 -6.979,28.311 0.074,40.733 5.024,8.861 12.827,14.096 19.565,20.675 C -2.633,-17.824 -0.106,-8.832 0,0"
             style="fill:#ec1e24;fill-opacity:1;fill-rule:nonzero;stroke:none"
             id="path36" />
        </g>
        <g
           id="g38"
           transform="translate(434.2166,374.6735)">
          <path
             d="m 0,0 c 1.916,-9.874 6.078,-19.465 13.389,-26.267 7.88,-6.846 15.934,-13.82 21.949,-22.784 12.467,-18.482 16.52,-42.574 11.576,-64.289 -9.298,-39.766 -44.294,-76.243 -74.403,-101.883 -22.224,-18.818 -36.038,-35.932 -40.341,-65.332 -8.301,40.416 17.383,65.365 42.68,92.076 13.254,14.689 26.428,30.03 37.154,46.465 8.434,13.321 16.944,26.984 20.655,42.31 4.686,22.112 -1.113,44.735 -16.246,62.208 0,0.001 -6.655,7.865 -6.655,7.865 C 3.084,-21.294 0.296,-10.331 0,0"
             style="fill:#ec1e24;fill-opacity:1;fill-rule:nonzero;stroke:none"
             id="path40" />
        </g>
        <g
           id="g42"
           transform="translate(434.036,434.1362)">
          <path
             d="m 0,0 c 0,0 15.762,10.251 28.912,-0.557 0,0 -20.219,-7.602 -21.517,-13.932 0,0 -4.322,3.869 -8.631,4.843 C -1.359,-8.098 -1.98,-4.913 0,0"
             style="fill:#ec1e24;fill-opacity:1;fill-rule:nonzero;stroke:none"
             id="path44" />
        </g>
        <g
           id="g46"
           transform="translate(330.7779,399.4827)">
          <path
             d="m 0,0 c -2.629,-0.297 -4.118,-3.204 -2.746,-5.466 3.763,-6.208 10.808,-10.884 17.848,-10.996 8.881,-0.14 17.325,4.317 23.882,10.309 6.557,5.993 11.538,13.469 16.634,20.745 5.095,7.276 10.478,14.539 17.592,19.86 7.112,5.321 16.286,8.522 24.969,6.651 0.521,7.576 -2.946,14.754 -9.324,18.875 -6.38,4.12 -13.371,3.589 -21.545,-0.036 -4.082,-1.81 -9.684,-3.426 -13.48,-3.71 -1.602,-0.119 -2.414,-2.021 -1.372,-3.244 2.265,-2.657 6.207,-4.938 12.808,-5.676 C 59.061,48.024 51.068,45.858 43.711,39.073 36.346,32.281 29.478,27.572 24.655,25.928 23.104,25.4 22.815,23.317 24.177,22.407 27.076,20.469 31.147,19.15 36.519,21.657 31.243,9.043 14.426,1.63 0,0"
             style="fill:#ec1e24;fill-opacity:1;fill-rule:nonzero;stroke:none"
             id="path48" />
        </g>
        <g
           id="g50"
           transform="translate(425.2077,426.5262)">
          <path
             d="m 0,0 c 0,-2.022 -1.639,-3.662 -3.662,-3.662 -2.022,0 -3.662,1.64 -3.662,3.662 0,2.022 1.64,3.662 3.662,3.662 C -1.639,3.662 0,2.022 0,0"
             style="fill:#ec1e24;fill-opacity:1;fill-rule:nonzero;stroke:none"
             id="path52" />
        </g>
        <g
           id="g54"
           transform="translate(453.4788,402.5561)">
          <path
             d="m 0,0 c -0.06,0.03 -0.12,0.06 -0.182,0.09 -3.97,1.985 -7.351,4.978 -9.872,8.631 l -1.573,2.278 c -0.514,0.352 -1.212,-0.021 -1.206,-0.644 l -1.245,-8.712 c -0.544,-3.805 -0.787,-7.665 -0.417,-11.491 0.329,-3.397 1.025,-6.755 2.106,-10.006 0.321,-0.966 1.073,-2.421 1.276,-2.746 5.245,-8.418 20.141,-7.751 24.814,3.123 1.915,4.457 2.468,8.186 -0.31,12.164 -2,2.863 -7.507,5.016 -9.901,5.845 C 2.293,-1.053 1.135,-0.562 0,0"
             style="fill:#ec1e24;fill-opacity:1;fill-rule:nonzero;stroke:none"
             id="path56" />
        </g>
        <g
           id="g58"
           transform="translate(632.889,251.921)">
          <path
             d="m 0,0 c 0.593,-0.556 0.189,-1.542 -0.624,-1.542 h -5.455 v -10e-4 h -29.568 v 10e-4 h -5.446 c -0.814,0 -1.218,0.986 -0.625,1.542 2.139,2.003 5.333,6.102 6.071,13.123 V 68.881 L -66.021,1.14 -96.293,68.706 V 13.223 c 0.72,-7.082 3.932,-11.213 6.079,-13.225 0.594,-0.556 0.19,-1.542 -0.623,-1.542 h -5.456 v -10e-4 h -29.566 v 10e-4 h -5.447 c -0.814,0 -1.218,0.986 -0.625,1.542 2.139,2.003 5.333,6.103 6.072,13.123 v 31.061 c -0.473,3.299 -1.807,7.188 -3.659,10.153 -0.905,1.448 -0.898,3.297 0.131,4.66 1.646,2.181 2.871,4.371 3.528,6.86 v 32.879 c -0.74,7.021 -3.934,11.12 -6.072,13.122 -0.593,0.557 -0.189,1.544 0.625,1.544 h 5.447 1.174 27.227 0.991 3.097 l 1.533,-3.302 2.146,-4.722 23.71,-52.195 25.842,56.975 1.458,3.244 h 4.209 0.978 26.249 1.166 5.455 c 0.813,0 1.217,-0.987 0.624,-1.544 -2.148,-2.011 -5.36,-6.142 -6.079,-13.224 V 66.014 c 0.645,-2.553 1.882,-4.792 3.563,-7.018 1.029,-1.363 1.035,-3.212 0.131,-4.661 C -4.298,51.274 -5.65,47.234 -6.079,43.868 V 13.225 C -5.36,6.143 -2.148,2.012 0,0"
             style="fill:#474748;fill-opacity:1;fill-rule:nonzero;stroke:none"
             id="path60" />
        </g>
        <g
           id="g62"
           transform="translate(731.3389,276.8807)">
          <path
             d="m 0,0 v -5.484 -1.137 -19.881 h -52.663 -5.455 v -0.001 h -29.567 v 0.001 h -5.447 c -0.814,0 -1.218,0.986 -0.625,1.542 2.139,2.003 5.334,6.104 6.072,13.127 v 31.599 c -0.535,3.178 -1.814,6.805 -3.567,9.61 -0.904,1.448 -0.898,3.297 0.132,4.66 1.573,2.083 2.759,4.178 3.435,6.531 V 73.77 c -0.738,7.023 -3.932,11.124 -6.071,13.127 -0.594,0.556 -0.189,1.543 0.625,1.543 h 5.447 1.174 27.224 1.167 5.455 c 0.814,0 1.218,-0.987 0.624,-1.543 -2.146,-2.011 -5.358,-6.141 -6.078,-13.218 V 40.564 c 0.676,-2.352 1.862,-4.445 3.435,-6.528 1.029,-1.363 1.036,-3.212 0.131,-4.66 -1.751,-2.804 -3.03,-6.429 -3.565,-9.605 V -5.484 h 42.995 c 7.296,0.647 11.535,3.925 13.579,6.108 C -0.987,1.218 0,0.813 0,0"
             style="fill:#474748;fill-opacity:1;fill-rule:nonzero;stroke:none"
             id="path64" />
        </g>
        <g
           id="g66"
           transform="translate(529.164,204.1996)">
          <path
             d="m 0,0 c -1.184,-1.314 -2.91,-2.371 -5.187,-3.171 -2.273,-0.804 -4.767,-1.204 -7.481,-1.204 -4.171,0 -7.505,1.273 -9.999,3.828 -2.493,2.551 -3.828,6.106 -4.004,10.656 l -0.02,2.755 c 0,3.134 0.555,5.873 1.661,8.215 1.11,2.343 2.694,4.143 4.759,5.404 2.065,1.261 4.452,1.893 7.166,1.893 3.967,0 7.049,-0.91 9.244,-2.726 2.196,-1.816 3.473,-4.522 3.841,-8.125 h -7.395 c -0.266,1.779 -0.833,3.048 -1.71,3.807 -0.874,0.755 -2.115,1.135 -3.718,1.135 -1.927,0 -3.412,-0.816 -4.461,-2.449 -1.053,-1.632 -1.584,-3.967 -1.6,-6.999 v -1.926 c 0,-3.18 0.543,-5.567 1.632,-7.167 1.086,-1.596 2.796,-2.396 5.131,-2.396 1.995,0 3.485,0.445 4.46,1.335 v 4.946 h -5.338 v 5.273 H 0 Z"
             style="fill:#1b1c1c;fill-opacity:1;fill-rule:nonzero;stroke:none"
             id="path68" />
        </g>
        <g
           id="g70"
           transform="translate(562.8134,217.4349)">
          <path
             d="M 0,0 H 4.857 C 6.314,0 7.411,0.384 8.15,1.151 8.885,1.918 9.256,2.992 9.256,4.367 9.256,5.738 8.881,6.82 8.138,7.599 7.395,8.383 6.301,8.775 4.857,8.775 H 0 Z M 4.159,-5.905 H 0 V -17.174 H -7.681 V 14.68 H 4.857 c 3.779,0 6.729,-0.837 8.86,-2.514 2.13,-1.673 3.195,-4.04 3.195,-7.101 0,-2.216 -0.448,-4.053 -1.346,-5.506 -0.898,-1.457 -2.302,-2.64 -4.212,-3.542 l 6.652,-12.864 v -0.327 H 9.779 Z"
             style="fill:#1b1c1c;fill-opacity:1;fill-rule:nonzero;stroke:none"
             id="path72" />
        </g>
        <g
           id="g74"
           transform="translate(630.8549,232.1149)">
          <path
             d="m 0,0 v -20.851 c 0,-2.363 -0.506,-4.407 -1.51,-6.134 -1.008,-1.73 -2.449,-3.044 -4.33,-3.95 -1.882,-0.902 -4.11,-1.355 -6.673,-1.355 -3.881,0 -6.938,1.004 -9.17,3.02 -2.229,2.012 -3.367,4.767 -3.412,8.268 V 0 h 7.721 v -21.157 c 0.09,-3.485 1.71,-5.228 4.861,-5.228 1.588,0 2.792,0.437 3.608,1.314 0.816,0.874 1.224,2.298 1.224,4.265 V 0 Z"
             style="fill:#1b1c1c;fill-opacity:1;fill-rule:nonzero;stroke:none"
             id="path76" />
        </g>
        <g
           id="g78"
           transform="translate(664.8307,216.9982)">
          <path
             d="M 0,0 H 5.032 C 6.522,0 7.656,0.371 8.436,1.114 9.215,1.861 9.607,2.91 9.607,4.265 9.607,5.754 9.203,6.942 8.403,7.832 7.599,8.721 6.505,9.175 5.122,9.187 H 0 Z M 0,-5.93 V -16.737 H -7.677 V 15.117 H 5.032 c 2.437,0 4.591,-0.449 6.465,-1.347 1.877,-0.894 3.326,-2.171 4.354,-3.828 1.029,-1.653 1.543,-3.53 1.543,-5.632 0,-3.106 -1.114,-5.591 -3.334,-7.448 C 11.831,-4.999 8.783,-5.93 4.901,-5.93 Z"
             style="fill:#1b1c1c;fill-opacity:1;fill-rule:nonzero;stroke:none"
             id="path80" />
        </g>
        <g
           id="g82"
           transform="translate(726.9871,216.8676)">
          <path
             d="m 0,0 c 0,3.163 -0.531,5.567 -1.588,7.207 -1.057,1.641 -2.571,2.461 -4.538,2.461 -3.852,0 -5.885,-2.885 -6.105,-8.664 l -0.021,-2.339 c 0,-3.122 0.515,-5.521 1.551,-7.199 1.037,-1.677 2.575,-2.514 4.616,-2.514 1.943,0 3.436,0.821 4.485,2.469 1.053,1.649 1.584,4.02 1.6,7.114 z m 7.807,-1.335 c 0,-3.105 -0.575,-5.856 -1.726,-8.248 -1.151,-2.391 -2.792,-4.236 -4.914,-5.526 -2.122,-1.289 -4.538,-1.934 -7.252,-1.934 -2.71,0 -5.118,0.624 -7.22,1.869 -2.097,1.249 -3.734,3.032 -4.909,5.351 -1.176,2.318 -1.792,4.979 -1.849,7.982 v 1.796 c 0,3.122 0.571,5.873 1.718,8.26 1.143,2.384 2.783,4.224 4.922,5.522 2.134,1.298 4.567,1.947 7.297,1.947 2.698,0 5.102,-0.641 7.22,-1.922 2.114,-1.286 3.759,-3.11 4.934,-5.481 1.171,-2.371 1.767,-5.09 1.779,-8.15 z"
             style="fill:#1b1c1c;fill-opacity:1;fill-rule:nonzero;stroke:none"
             id="path84" />
        </g>
        <g
           id="g86"
           transform="translate(527.8091,167.1384)">
          <path
             d="m 0,0 c -0.396,-3.371 -1.641,-5.971 -3.73,-7.799 -2.094,-1.833 -4.877,-2.747 -8.35,-2.747 -3.763,0 -6.779,1.347 -9.044,4.049 -2.269,2.697 -3.404,6.305 -3.404,10.827 v 3.065 c 0,2.959 0.531,5.563 1.588,7.807 1.057,2.249 2.554,3.971 4.493,5.175 1.943,1.204 4.187,1.804 6.742,1.804 3.383,0 6.093,-0.943 8.138,-2.832 2.041,-1.89 3.228,-4.502 3.567,-7.844 h -4.224 c -0.363,2.547 -1.155,4.391 -2.375,5.53 -1.216,1.143 -2.918,1.714 -5.106,1.714 -2.685,0 -4.791,-0.992 -6.313,-2.979 -1.527,-1.984 -2.286,-4.808 -2.286,-8.473 V 4.208 c 0,-3.461 0.722,-6.212 2.163,-8.257 1.445,-2.04 3.465,-3.064 6.061,-3.064 2.334,0 4.126,0.53 5.371,1.587 1.248,1.057 2.077,2.898 2.485,5.526 z"
             style="fill:#1b1c1c;fill-opacity:1;fill-rule:nonzero;stroke:none"
             id="path88" />
        </g>
        <g
           id="g90"
           transform="translate(575.3712,173.9866)">
          <path
             d="m 0,0 c 0,3.775 -0.759,6.673 -2.277,8.693 -1.514,2.02 -3.637,3.032 -6.367,3.032 -2.653,0 -4.742,-1.012 -6.269,-3.032 -1.522,-2.02 -2.306,-4.824 -2.35,-8.411 v -2.339 c 0,-3.661 0.771,-6.538 2.31,-8.632 1.538,-2.093 3.656,-3.138 6.354,-3.138 2.714,0 4.812,0.988 6.301,2.963 1.486,1.975 2.253,4.808 2.298,8.501 z m 4.179,-2.057 c 0,-3.122 -0.526,-5.848 -1.575,-8.175 -1.053,-2.326 -2.539,-4.101 -4.465,-5.325 -1.926,-1.225 -4.171,-1.837 -6.738,-1.837 -2.51,0 -4.734,0.616 -6.673,1.849 -1.938,1.232 -3.444,2.987 -4.518,5.273 -1.073,2.281 -1.624,4.926 -1.653,7.929 v 2.298 c 0,3.061 0.535,5.767 1.6,8.118 1.061,2.346 2.571,4.142 4.518,5.391 1.947,1.249 4.175,1.869 6.681,1.869 2.555,0 4.804,-0.616 6.75,-1.849 C 0.053,12.252 1.551,10.468 2.604,8.126 3.653,5.783 4.179,3.061 4.179,-0.045 Z"
             style="fill:#1b1c1c;fill-opacity:1;fill-rule:nonzero;stroke:none"
             id="path92" />
        </g>
        <g
           id="g94"
           transform="translate(612.7834,188.8829)">
          <path
             d="M 0,0 10.411,-25.989 20.826,0 h 5.449 v -31.854 h -4.204 v 12.407 L 22.467,-6.061 12.011,-31.854 H 8.795 l -10.436,25.728 0.413,-13.321 v -12.407 h -4.2 V 0 Z"
             style="fill:#1b1c1c;fill-opacity:1;fill-rule:nonzero;stroke:none"
             id="path96" />
        </g>
        <g
           id="g98"
           transform="translate(685.9875,171.7542)">
          <path
             d="M 0,0 H -13.807 V -11.289 H 2.232 v -3.436 H -18.006 V 17.129 H 2.012 V 13.696 H -13.807 V 3.432 H 0 Z"
             style="fill:#1b1c1c;fill-opacity:1;fill-rule:nonzero;stroke:none"
             id="path100" />
        </g>
        <g
           id="g102"
           transform="translate(719.1553,173.3499)">
          <path
             d="m 0,0 h 6.456 c 2.086,0 3.743,0.543 4.975,1.62 1.233,1.082 1.849,2.531 1.849,4.343 0,1.971 -0.587,3.485 -1.759,4.534 -1.175,1.053 -2.873,1.587 -5.089,1.604 L 0,12.101 Z M 7.485,-3.436 H 0 V -16.321 H -4.22 V 15.533 H 6.322 c 3.591,0 6.35,-0.816 8.28,-2.449 1.935,-1.636 2.902,-4.012 2.902,-7.134 0,-1.983 -0.538,-3.709 -1.608,-5.183 -1.073,-1.473 -2.563,-2.575 -4.477,-3.305 l 7.485,-13.521 v -0.262 h -4.506 z"
             style="fill:#1b1c1c;fill-opacity:1;fill-rule:nonzero;stroke:none"
             id="path104" />
        </g>
        <g
           id="g106"
           transform="translate(787.4785,167.1384)">
          <path
             d="m 0,0 c -0.392,-3.371 -1.637,-5.971 -3.73,-7.799 -2.094,-1.833 -4.873,-2.747 -8.346,-2.747 -3.763,0 -6.779,1.347 -9.044,4.049 -2.269,2.697 -3.404,6.305 -3.404,10.827 v 3.065 c 0,2.959 0.527,5.563 1.588,7.807 1.057,2.249 2.555,3.971 4.493,5.175 1.939,1.204 4.187,1.804 6.738,1.804 3.383,0 6.097,-0.943 8.138,-2.832 2.045,-1.89 3.232,-4.502 3.567,-7.844 h -4.22 c -0.367,2.547 -1.159,4.391 -2.375,5.53 -1.216,1.143 -2.922,1.714 -5.11,1.714 -2.681,0 -4.787,-0.992 -6.309,-2.979 C -19.541,13.786 -20.3,10.962 -20.3,7.297 V 4.208 c 0,-3.461 0.718,-6.212 2.163,-8.257 1.445,-2.04 3.465,-3.064 6.061,-3.064 2.334,0 4.126,0.53 5.371,1.587 1.248,1.057 2.077,2.898 2.485,5.526 z"
             style="fill:#1b1c1c;fill-opacity:1;fill-rule:nonzero;stroke:none"
             id="path108" />
        </g>
        <path
           d="m 819.226,157.029 h -4.2 v 31.854 h 4.2 z"
           style="fill:#1b1c1c;fill-opacity:1;fill-rule:nonzero;stroke:none"
           id="path110" />
        <g
           id="g112"
           transform="translate(854.3201,168.7994)">
          <path
             d="M 0,0 H 10.827 L 5.404,14.9 Z M 12.076,-3.436 H -1.269 L -4.265,-11.77 H -8.599 L 3.567,20.084 H 7.24 L 19.426,-11.77 h -4.309 z"
             style="fill:#1b1c1c;fill-opacity:1;fill-rule:nonzero;stroke:none"
             id="path114" />
        </g>
        <g
           id="g116"
           transform="translate(903.7677,160.4656)">
          <path
             d="M 0,0 H 15.092 V -3.436 H -4.224 V 28.417 H 0 Z"
             style="fill:#1b1c1c;fill-opacity:1;fill-rule:nonzero;stroke:none"
             id="path118" />
        </g>
        <g
           id="g120"
           transform="translate(528.0923,94.6158)">
          <path
             d="m 0,0 c 0,1.507 -0.352,2.782 -1.057,3.827 -0.705,1.045 -1.817,1.969 -3.329,2.771 -1.513,0.801 -3.803,1.622 -6.865,2.466 -3.062,0.844 -5.358,1.695 -6.889,2.552 -1.531,0.856 -2.655,1.852 -3.366,2.988 -0.711,1.137 -1.069,2.509 -1.069,4.132 0,2.575 1.087,4.659 3.256,6.257 2.169,1.598 5,2.393 8.481,2.393 2.266,0 4.307,-0.443 6.112,-1.324 1.804,-0.881 3.201,-2.12 4.191,-3.718 0.991,-1.598 1.483,-3.396 1.483,-5.407 h -1.313 c 0,2.643 -0.972,4.824 -2.916,6.549 -1.944,1.726 -4.465,2.588 -7.557,2.588 -3.11,0 -5.625,-0.692 -7.545,-2.077 -1.92,-1.386 -2.88,-3.123 -2.88,-5.213 0,-2.12 0.832,-3.833 2.503,-5.127 1.671,-1.294 4.423,-2.442 8.262,-3.439 3.84,-0.996 6.652,-2.15 8.432,-3.463 2.266,-1.67 3.402,-3.906 3.402,-6.706 0,-1.78 -0.504,-3.36 -1.506,-4.727 -1.002,-1.367 -2.43,-2.424 -4.277,-3.171 -1.847,-0.747 -3.918,-1.118 -6.221,-1.118 -2.557,0 -4.86,0.425 -6.901,1.276 -2.041,0.85 -3.578,2.059 -4.605,3.633 -1.027,1.573 -1.543,3.426 -1.543,5.565 h 1.312 c 0,-2.898 1.088,-5.152 3.256,-6.756 2.169,-1.604 5,-2.406 8.481,-2.406 3.092,0 5.644,0.711 7.655,2.127 C -1.002,-4.113 0,-2.266 0,0"
             style="fill:#231f20;fill-opacity:1;fill-rule:nonzero;stroke:none"
             id="path122" />
        </g>
        <g
           id="g124"
           transform="translate(547.3746,95.7579)">
          <path
             d="M 0,0 H 13.778 L 7.436,15.892 6.901,17.448 6.367,15.868 Z M 14.313,-1.312 H -0.51 l -3.329,-8.311 h -1.434 l 11.397,28.31 h 1.531 l 11.396,-28.31 h -1.409 z"
             style="fill:#231f20;fill-opacity:1;fill-rule:nonzero;stroke:none"
             id="path126" />
        </g>
        <g
           id="g128"
           transform="translate(582.5311,100.0105)">
          <path
             d="m 0,0 v -12.563 h 8.651 c 2.509,0 4.495,0.565 5.953,1.701 1.458,1.136 2.188,2.721 2.188,4.763 0,1.798 -0.705,3.262 -2.115,4.386 C 13.268,-0.589 11.373,-0.018 8.991,0 Z m 0,1.312 h 7.217 c 5.474,0 8.214,1.962 8.214,5.893 0,3.833 -2.722,5.802 -8.165,5.917 H 0 Z m -1.312,-15.187 v 28.309 h 8.116 c 3.238,0 5.705,-0.625 7.4,-1.871 1.694,-1.245 2.539,-3.062 2.539,-5.443 0,-1.604 -0.431,-2.971 -1.3,-4.095 -0.869,-1.123 -2.126,-1.865 -3.779,-2.223 1.865,-0.292 3.402,-1.088 4.617,-2.394 1.215,-1.306 1.823,-2.788 1.823,-4.459 0,-2.448 -0.851,-4.362 -2.552,-5.747 -1.701,-1.385 -4.04,-2.077 -7.023,-2.077 z"
             style="fill:#231f20;fill-opacity:1;fill-rule:nonzero;stroke:none"
             id="path130" />
        </g>
        <g
           id="g132"
           transform="translate(633.4523,100.2049)">
          <path
             d="M 0,0 H -15.115 V -12.758 H 2.138 V -14.07 H -16.427 V 14.24 H 2.114 V 12.928 H -15.115 V 1.312 H 0 Z"
             style="fill:#231f20;fill-opacity:1;fill-rule:nonzero;stroke:none"
             id="path134" />
        </g>
        <g
           id="g136"
           transform="translate(689.8837,99.889)">
          <path
             d="m 0,0 h -15.382 v -13.754 h -1.312 v 28.31 H 2.138 v -1.312 h -17.52 V 1.312 H 0 Z"
             style="fill:#231f20;fill-opacity:1;fill-rule:nonzero;stroke:none"
             id="path138" />
        </g>
        <g
           id="g140"
           transform="translate(709.3847,95.7579)">
          <path
             d="M 0,0 H 13.778 L 7.436,15.892 6.901,17.448 6.367,15.868 Z M 14.313,-1.312 H -0.51 l -3.329,-8.311 h -1.434 l 11.397,28.31 h 1.531 l 11.396,-28.31 h -1.409 z"
             style="fill:#231f20;fill-opacity:1;fill-rule:nonzero;stroke:none"
             id="path142" />
        </g>
        <g
           id="g144"
           transform="translate(745.0515,114.4449)">
          <path
             d="M 0,0 12.369,-26.317 24.762,0 h 1.871 V -28.31 H 25.321 L 25.345,-1.823 12.904,-28.31 H 11.859 L -0.535,-1.92 -0.51,-28.31 H -1.823 V 0 Z"
             style="fill:#231f20;fill-opacity:1;fill-rule:nonzero;stroke:none"
             id="path146" />
        </g>
        <path
           d="m 792.036,86.135 h -1.312 v 28.31 h 1.312 z"
           style="fill:#231f20;fill-opacity:1;fill-rule:nonzero;stroke:none"
           id="path148" />
        <g
           id="g150"
           transform="translate(812.3694,87.4472)">
          <path
             d="M 0,0 H 15.552 V -1.312 H -1.312 v 28.31 H 0 Z"
             style="fill:#231f20;fill-opacity:1;fill-rule:nonzero;stroke:none"
             id="path152" />
        </g>
        <path
           d="m 845.284,86.135 h -1.312 v 28.31 h 1.312 z"
           style="fill:#231f20;fill-opacity:1;fill-rule:nonzero;stroke:none"
           id="path154" />
        <g
           id="g156"
           transform="translate(866.1216,95.7579)">
          <path
             d="M 0,0 H 13.778 L 7.436,15.892 6.901,17.448 6.367,15.868 Z M 14.313,-1.312 H -0.51 l -3.329,-8.311 h -1.434 l 11.397,28.31 h 1.531 l 11.396,-28.31 h -1.409 z"
             style="fill:#231f20;fill-opacity:1;fill-rule:nonzero;stroke:none"
             id="path158" />
        </g>
        <g
           id="g160"
           transform="translate(901.1809,99.2815)">
          <path
             d="m 0,0 h 9.356 c 2.302,0 4.167,0.632 5.601,1.902 1.434,1.263 2.15,2.879 2.15,4.841 0,2.108 -0.759,3.815 -2.284,5.109 -1.525,1.301 -3.602,1.969 -6.245,1.999 H 0 Z M 10.376,-1.312 H 0 v -11.834 h -1.312 v 28.309 h 9.72 c 2.995,0 5.419,-0.759 7.266,-2.272 1.847,-1.512 2.77,-3.566 2.77,-6.16 0,-1.913 -0.644,-3.59 -1.932,-5.03 -1.288,-1.44 -2.898,-2.339 -4.824,-2.697 l 8.02,-11.907 v -0.243 h -1.386 z"
             style="fill:#231f20;fill-opacity:1;fill-rule:nonzero;stroke:none"
             id="path162" />
        </g>
        <path
           d="m 931.125,137.512 h -440.72 v 1.889 h 440.72 z"
           style="fill:#231f20;fill-opacity:1;fill-rule:nonzero;stroke:none"
           id="path164" />
      </g>
    </g>
  </g>
</svg>
